<mxfile host="65bd71144e">
    <diagram id="7F4k9qb5yY_J2StsvzGs" name="Page-1">
        <mxGraphModel dx="881" dy="346" grid="1" gridSize="10" guides="1" tooltips="1" connect="1" arrows="1" fold="1" page="1" pageScale="1" pageWidth="1100" pageHeight="850" math="0" shadow="0">
            <root>
                <mxCell id="0"/>
                <mxCell id="1" parent="0"/>
                <mxCell id="8" value="" style="html=1;shadow=0;dashed=0;align=center;verticalAlign=middle;shape=mxgraph.arrows2.uTurnArrow;dy=5.5;arrowHead=24;dx2=25;strokeColor=none;strokeWidth=1;fontSize=14;fillColor=#E6E6E6;rotation=1;flipH=1;" parent="1" vertex="1">
                    <mxGeometry x="380" y="250.35" width="49.91" height="80" as="geometry"/>
                </mxCell>
                <mxCell id="2" value="GitHub" style="rounded=1;whiteSpace=wrap;html=1;fillColor=#999999;strokeWidth=2;arcSize=4;fontColor=#FFFFCC;strokeColor=#333333;spacingBottom=0;fontSize=24;verticalAlign=top;spacingTop=90;" parent="1" vertex="1">
                    <mxGeometry x="80" y="80" width="240" height="320" as="geometry"/>
                </mxCell>
                <mxCell id="18" style="edgeStyle=none;html=1;entryX=0;entryY=0.5;entryDx=0;entryDy=0;strokeWidth=2;fontSize=14;fontColor=#FFCC99;endArrow=block;endFill=1;dashed=1;" parent="1" source="6" target="9" edge="1">
                    <mxGeometry relative="1" as="geometry"/>
                </mxCell>
                <mxCell id="6" value="Webhooks" style="rounded=0;whiteSpace=wrap;html=1;strokeWidth=1;fillColor=#808080;fontSize=18;fontColor=#ffffff;strokeColor=#333333;" parent="1" vertex="1">
                    <mxGeometry x="80" y="320" width="240" height="40" as="geometry"/>
                </mxCell>
                <mxCell id="3" value="" style="shape=image;verticalLabelPosition=bottom;labelBackgroundColor=default;verticalAlign=top;aspect=fixed;imageAspect=0;image=data:image/png,iVBORw0KGgoAAAANSUhEUgAAAE0AAABNCAYAAADjCemwAAAABmJLR0QA/wD/AP+gvaeTAAAACXBIWXMAAAsTAAALEwEAmpwYAAAAB3RJTUUH4ggIAzUQ31wfjAAABUdJREFUeNrtnE1oXFUUx395STNEW4rYNtVASoRCG7CIRbvQjYoiaupCq/i10kaxfqCNgl8rFy5EoxVclbiwuhChIIoLoeJHUmsTKa22YBtD1dQmsSV+JDZf6uKd0WHy5n2c+97MO0P+cBmYN/fcc/7z3n3nnnvObaA2aAE6gDZgE7ARWA+sBdbI9WZgFvgLGAdOA8eBY8BhYBQYket1jW3AIeCfFNshkVtX6AYGgJmUySpvMzJOt1WiWoEeYD5joiq1eWCn6GECu2pEVKX2ep7JegyYyBlhxTYOPJInstqB/Tklq7wNiL41xVZgzghhxTYH3FIrwvqMkVXe+qrtmB40TlixfS32JEKD4venxWuvF4wndU28hIT9UGeEIfaMZPVIjtXJI1mpjWke1TAcrHPCSue4pbdkLd6qWxN63SeBszkj4azolWS10uXi6SdxXD2gSeJgq4FXa0zWK6JHs+jVlNABVq0ckiyNPqkgowDcLQHDahD1M3CXjBuETxMuuRIvvpMo+0QMmS8AkwF9z8mbaxj4FhgShT+TzyH5flimgKC43CTwfAwdehLalWiRnzRacWNMucuBL8QvehpYJ6/5gjw+DSH+ZJP8rhgqf0bmqs9FbhzcpIiOZBYPu9yII7tZYdtrcSKumrlkgxHSNijtaw1bRt2rVKbRCGlaPe8Ju6iN6V9lhLSrHfYcAu+0bod/osMIaR0Od+j2oAsDDv7RHiOk7XEMlS+60zY7KHPGCGkuei7iZ5vDP/CjsfjZTw623lYqSJsqcA5YaYy0laK3xt5vSgOMWubfMRqtfdfB5haATgcB5xslbbmDzRs9/HQnDT4CpoyS9ifwsbJvm4efH6bB+9iGVv9LPfyEOg2OGiftO2W/Tg8/A1GDUeOkafVf7+GnbGowaZw0rf4Xeeg3f+eMk6bVf7WHfoO02ThpBWW/Fs/B+IJx0tR2ew636QrjpGn1n/McHFTriTBa/ac8/B1oDdYaJ02r/68e/garBlcYJ+1KrX/n4eecaXC9cdK0+g97DsuJLYajHCscnpSjHnDEYfDnjJL2rEPfI+AWTxvFzp5nEY3AKQebOwHOwy1T535jpG13tPe/FZRrOWG7EcLWOdo5VCrsTkdhx42QdsLRztvLBc7iXneUZ3yFez3pIgzgnol4CrgwZ2StIp10/v4g4Q+RTgrnFH7WYx7wIjCdkl0PVhpkIYLpXmC3TIhRgwzLm3VVlYlqlRvgJOnl8s6HDfhUSMfyrb5NwG8xB90HXCcriALJyouifK6CyL01hXmrUuuJWvlX6jgNXBMQiBwiWar5L/jHROwDLlaSdQlwAPgePy/2b7LNGo8sOHsjQkBvQJ9jCkXec7zL9lKdNPtdsWNGEYJ2l/0+6VIsrQNIZjMmbCKJMnHqCO4o6/NwAmVeSom0lzMm7dG0ncHpgD5vx1Tm2pRIuyFDwvZrFGonOnH5zYB+j4e4LgsyaaflhrRlRFhobVRUOXYX8EHI9TFRfKHs+wuAy/ArRNrENTkg7QTpbTQ3RvlQSnQBH7oIeEvrKVcJuT1FYTBioC11Qtpgmoq1EF5kNgPcZ5y0cVKuYS/OfyMRA+/FrwpZFiJnWQ5JGyHBcRuacznG8Ct2o3BYJv4zMmF34O81tivGjSLNBRP8X0iXGVpizHFRLS932mAWj2QY+oyT1lejOZib0Z1qVUvSanqqVenKod8Iabk4P60UO4hf+54WvATRih3kGL0xjEgzcmv6TMhSrAGeDJnvsn4852V8M6ePluMB4Evgd1m4p32g5U7gD2n9VKgAXsIS7OFf3NNxjRIaP5oAAAAASUVORK5CYII=;" parent="1" vertex="1">
                    <mxGeometry x="160" y="90" width="80" height="80" as="geometry"/>
                </mxCell>
                <mxCell id="4" value="" style="shape=image;verticalLabelPosition=bottom;labelBackgroundColor=default;verticalAlign=top;aspect=fixed;imageAspect=0;image=data:image/png,iVBORw0KGgoAAAANSUhEUgAAAgAAAAIACAMAAADDpiTIAAADAFBMVEX///8AAAAAAAAAAAAAAAAAAAAAAAAAAAAAAAAAAAAAAAAAAAAAAAAAAAAAAAAAAAAAAAAAAAAAAAAAAAAAAAAAAAAAAAAAAAAAAAAAAAAAAAAAAAAAAAAAAAAAAAAAAAAAAAAAAAAAAAAAAAAAAAAAAAAAAAAAAAAAAAAAAAAAAAAAAAAAAAAAAAAAAAAAAAAAAAAAAAAAAAAAAAAAAAAAAAAAAAAAAAAAAAAAAAAAAAAAAAAAAAAAAAAAAAAAAAAAAAAAAAAAAAAAAAAAAAAAAAAAAAAAAAAAAAAAAAAAAAAAAAAAAAAAAAAAAAAAAAAAAAAAAAAAAAAAAAAAAAAAAAAAAAAAAAAAAAAAAAAAAAAAAAAAAAAAAAAAAAAAAAAAAAAAAAAAAAAAAAAAAAAAAAAAAAAAAAAAAAAAAAAAAAAAAAAAAAAAAAAAAAAAAAAAAAAAAAAAAAAAAAAAAAAAAAAAAAAAAAAAAAAAAAAAAAAAAAAAAAAAAAAAAAAAAAAAAAAAAAAAAAAAAAAAAAAAAAAAAAAAAAAAAAAAAAAAAAAAAAAAAAAAAAAAAAAAAAAAAAAAAAAAAAAAAAAAAAAAAAAAAAAAAAAAAAAAAAAAAAAAAAAAAAAAAAAAAAAAAAAAAAAAAAAAAAAAAAAAAAAAAAAAAAAAAAAAAAAAAAAAAAAAAAAAAAAAAAAAAAAAAAAAAAAAAAAAAAAAAAAAAAAAAAAAAAAAAAAAAAAAAAAAAAAAAAAAAAAAAAAAAAAAAAAAAAAAAAAAAAAAAAAAAAAAAAAAAAAAAAAAAAAAAAAAAAAAAAAAAAAAAAAAAAAAAAAAAAAAAAAAAAAAAAAAAAAAAAAAAAAAAAAAAAAAAAAAAAAAAAAAAAAAAAAAAAAAAAAAAAAAAAAAAAAAAAAAAAAAAAAAAAAAAAAAAAAAAAAAAAAAAAAAAAAAAAAAAAAAAAAAAAAAAAAAAAAAAAAAAAAAAAAAAAAAAAAAAAAAAAAAAAAAAAAAAAAAAAAAAAAAAAALI7fhAAAA/3RSTlMAqAH+/Fj9AgQDBwb7+vbyBQoJ9RjxDPkT9w4IEfMPHfQW2/jgHu/jEO7G8EXed78Xqtbr6g0tGiTJO3g1nm4wzxTSIuwVjM0zRlJ2TY/fGQsxZ7fAG4OjKsVOr+i0dIdcLCjdy8O57VXOQGTY5z+VxF8fN31a6WySzJ8p1aSCrIRo5uFr2mK2IaaryGDc5NR6L3BEkzapPdAyfOVIZkLCvLHiVDkSR09DUz7HJmGXHMqgSyMrs3ttuJpWTDrThr2LJS6Bfq4nNNddsG9BwZkg0b6RjbVlW1dzoVnZrXJ1p1FQgHGbooVJimOJpZyymJa7iJ26lHlKjn88OGpeaZBsNgujAAAi2klEQVQYGe3BA6AkScIu0O8Wrm21bdu2bdu2bQ66Zxpj27Zt2/bM8v/ee/t2/53uiayKyIysyuqJcwDDMAzDMAzDMAzDMAzDMAzDMAzDMAzDMAzDMAzDMAzDMAzDMAzDMAzDMAzDMAzDMAzDMAzDMAzDMAzDMAzDMAzDMAzDMAzDMAzDiIjk0mY3NT1rbu2/Hnm0XGEJjD+LJg9+8M7P22ZX4inipz3/8rOLr6m9KgXGGSqh+xefvteiMUNLO/eGg0+Xwjiz+Ca0fbIq5W0addsqGGeIqzec3ZjqznvjiX4wYly5a4btpX37vmwHI2YlB0/66VTDxc1hxKIJ/9OZekz+qBmM2JI/axc1Crx9JYzYsejjMtRtxoJkGLEgefM9dMXSh3JheF3Cgsp0TcGzQ2B42sh9dFVR10IYnnXOCLou7+EmMDzpwZcZEY0+SobhOdvX+Bkpe56G4S3VD6cxgvx3lIXhIU9fyAjbOxKGVyR39TPy4rrA8ISmzzMqOo+HEX2+jyoxWl4uByPKrjvJKJpWG0ZUvVaDURV4F0b0lF3DqHsvC0aUPDCJHnDudhhR0boxPaHzIRhRcH55ekTgdRgRtyCV3vFVCozIakVPeTkZRgQlLKfHTM2GETHJDeg5J7NgREjZevSgwfkwIqLZ8/Sk+U1gREDZffSoXWVhuC7zJD1rcikMt62kh81PgeGuxfS0G2C4ajw9rhcMF80toMfF94bhmok16HllmsJwSYU6jAF9u8BwRXYLxoT5KTBckPAIY8RKGC4YS806V6sz+54Z1zdcGqBms2Bo92gRNYlf/cZDWw9dnY3/8FVvvij46QWT/NQk4zkYmiXUpA5LL9h/eTEs9G9928s51GGwD4Ze79C5Ol3v9iGM5Nq/NaRzB2FodXU6HXprbTtIevTLOXSoaCIMjRLm05H4b2r7oCBx5AWpdOT6JBj6HKQTNbp2grLchzLoxFEY2jRPp31Ve2XBlsIvc2hfWjsYmvhO0LaCPoWwLffFSrStYyIMPdrSLn9cJzhSrgFt+zsMLW7KoU17/grHRu6lTUubwNDhJ9r0XX9oUHytn/YMhaHBcdpTrTY0OWc2bclpBsO5mrRlR3Vok/82bfkahmN30Y74XtDJd9RPGwI3w3DIdy5tyOgNzXrn0YYxMBy6kzb0nQDtJr5FG56G4UjSbKqr2QUu6NCe6ibDcOQaqhvRBK4ovZ7qnobhQGZlKttVDJcU16SyUTAceI3Kri8L1+Q/Q1WBhTDsG0xVK6pDVlb95gOuvPHK5lmQlrWLqj6HYdsqqupbCBmFN66/rwz/o9bq7+//tRgycqtRUY0sGHa9SEXp7RDW1QNveIt/FGjxw6WZCGtADhUdg2FTVlUqehXh9JhKa6OHlkM4V/ip5h4YNm2loj4ILeWaexhaYFRtH0I7SkXHYdgzmWrqJSKUwlvnUMK+QwhtG9WMgmHLY1QzrT5CyLw3h5LWVUEozWpQSXx9GHY8SzVPIIQHVlBeztFkhDCeagbCsCGhMZVsQwgLylBJxQEIYRSVTIVhw1+pJKMcLBXvoKqcIKxVaEQVaaUw1HWlkg2w9Lc6tGFcAiw9QSX/gKGuIlWc8MHKhlTaMqYsrPhmUMUFMJTdTCV3w8qbftq0rxBWLqeKonwYqm6litth5dI02nZ9PqwMooo7Yai6nirOgoVF5enA9ymw0DSeCs6GoWiInwrGwMKqznSkQQIsrKSCMiUw1LxCFUcgVu5COvQtLEygirkw1PxIBbdALL8hHbsGFupRQV0YalZTwY0Q+5zO5ZWDWE8qGAVDSXE85VVLgtCqNGrwE8SSNlHeRhhKLqeCtRC7j1psgFgrKqgCQ8V+yotfCKHXqEeZ7RDqEqC8O2GouIDypkIofy81uR1iL1DebzBUjKa8NyH0JbW5GELLKK8mDAULKS++FCIPpFGbQRAa4qe0ohQY8npS3i4I3U+NWkNoF+W1hiFvLOU9BJGE86jRNxB6l/J2w5A3j/LuhkhtatUUIk0p7y8w5G2jtKpJEPmEWo2DSEIZSlsJQ97jlPYIRPqXoVYVIVSP0l6AIc2XTmmLITKemh2AyJeUNgmGtFzKuwwit1Oz9RDpSWlpCTBkXUx5nSBQPUDNZkNkCOVdB0PWEkor44NAS2rXDCLTKK0lDFl1Ke0qiLxC7W6ESHtKexWGrLWUdgdEfqN2iyFyAaXthyGrK6V9CJFB1O4RiBymtBdhyPqO0m6DyCZqVxkiYyntWxiyVlLaEgj091O/fAjcSWltYMg6m9J6QOAxuqAcBOZS2hoYsm6htO4QCNIFwyGwiNIawJB1ktIWQuA1umARBAZQ2pMwZNWktCEQuIwuOASB4ZQ2CIasbpTWCQI96IL3IdCc0u6DIWs+pU2EwDl0wUgIlKO0KTBk3U5pByDQmi5oCYEhlNYChqx1lNYaAhPogokQaEpp3WDIeoPS/gqBm+iCLhCYSWkvwJA1j9J6Q6AZ9fMnQuAKSlsHQ9bnlLYZAgl51K4RRAZS2h0wZD1MaV9CZCq1+x4i+yntBxiyXqe09yDyMLUbB5H/obS6MGTNorQREDlE7a6AyFRKewWGrNqUVg0iTQLUbSFENlLaFTBkNae0+HyItKdmjSFSSHlPw5CVEk9pcyEyj5p9ApGZlHcAhrQLKa0XRJZQsxsh0pbyysGQ9gylvQ2RwhxqVTUFIh9TWlESDGk3UFo1CM2jVm0gtIXSZsCQ9xfKawaR5vHU6XyIbKe8T2DI+wflLYHQKGq0JwkiGyjvXRjyLqa8nRBqSY22QmgU5X0GQ152KqWVz4bQLmrTNxEiiXmUVw6Ggm6U9wGEplObVyB0DuXVgqHiO8r7BEJJdajJpkwIfUd582Go2E15VTMh1JOanJcPkaw8yvsWhopVVHAFxN6jJvdCZAEVbIahwpdHeYMhVjiaelTqBIH5VNAahpKTVPAgxD6gJk/ij1ZRQecEGEo+pYKPYWENNTmEP3iJCuJgqLmUCtIvgVhWC+qxOhGnKcyggmtgqEnJoIJWsFBhD/Voi9P8QBVDYCjaSQXTqsPCA42oRY0OOEWF8lSwD4aq8VRxP6z8LZ1aXItT/EYVL8FQdUmACiothJW5NahD4AB+p186VfSAoWwwVayBpYl1qMNg/M5HVFFUAkPZO1ThPwJLFVpQh+n4nff3UN5UGOqaU8muJFjK3kkNKmfjd1J65VHWZhg2rKaSWxHCq9Po3MM4RYWP4ymlqBSGDXWpJK0dQqj/Nh3LKYdTtatHGTtg2FE/jUo6piCUOzfSqTicruckhncchi3rqGYcQipZVo0OnYPTJdfNYBiTfDBsuZRqAj0QWsrAynRkRgL+oP7X8QzpVhj2JFSmmqqPIozMy77KoAOvQGDAYIYQGALDpqNUtKUUYZV88FUN2tW4LESuqENLY2DYNSRARScTIcHX/M2XnsmgHX0glNwqgxbeh2HbN1Q1D9Kym00457LKVJM6EWK5P8ZTZHQiDNsup7KHoGQ6Fd0OKwOeocBaGA7Mp7JPoeQZKuoNSxf15emqVofhQG2q+wEqBsRTTcUUWEr+pQxPtRiGIyOoritUfExFvRBCbpt4/k7nJjAc6UEb5iVCXoU8qsnIRShHTvC/6sJwqCZteKEL5L1LRSsR2vS+/Lel/WE4dCnt2HQE0lIqUo3/LIRWsr8M/+UdGI5dRTvSn4C0kVR0lQ9h9FvpJ7kxG4ZjM2nPz/0h63sqegJhdZ9CLoOhwVe0p05tSLo5QDXn5SO8O08kw9AgN482tSmFnJ+p6F4YkdOWds3pCSmX1KCaSp1gRExSe9q2bRVk3EZFT8KInIv9tC11+SUIL7EhFR2CETlf04FptyUirEupaHUijIgp7EwnHv8MYd1CRW1hRM50OjNoFcK4Oo1qanSAETl30JnU5ZcgtJeo6FoYkZO9mg7VaJuIUMo2pprAARiR07SITj3+GUI5RkWDYUTQ3+ncoFWwlnAuFU2HEUGj6Fzq4UtgaSYVVc6GETmXVKMGNT6ApXVU9DCMCLq7Ep0LNIWl7ZWoJqccjAh6zU/H5iGEe6koDkYkvUunpl2CEPI3UtE5MCLpOzq0GSEtoKIZCTAiKOkWOtIxCSH5rqeiV2BEUv/JdOJphHExFTUuCyOS6velfesQ1ldU1AdGRD16Hu0qeg5hXZdDNakTYUTUTZVp01pIeJiKbocRWVUq0pYLsyAhexMV9YYRWf0a0o4gpASpqGIKDE2ych84Mveucgijy7lUdwKS5lNRL1hL2X735eff9f70N/+x9dirN7a8eUh/GKcrmXDRrcNqNqxWK8B/CSKc0uupKr4dJHX3U01GLv6g8Pg1i7+9pX1jP0+X2mjL1MPLai/0wUDpzA19ttWJ56mCCKu4IhU9C2ltqGglfq/ZXYtHbWJY6R13Dr2xFH9e+b/e3y2eIkGENTyVaqp2gLTcDKrxn4X/L+nuh7aNpgL/PdcuqYI/n5LL19dMpZUgwppKRU9BQV0qusoHIHf32TVox4U7jtXHn0i5uvUqMZQgwhlJRasToSB5EhVdc869M/y0L37wsmb4U8jffZ+fYQQRRvIeKqoNJR8w8vwjPqqCM1xSjzU5DC+IMFpR0ZNQdB+josXf83Hmanr/eZQSRGj9ylBNpU5Q1DTA6Mhb/ijOTJ+NoKwgQnuDiu6Fsu8YLf6fLkvAmcbXsxvlBRHSIj/VnJcPZR2qMnoq1y3EmSRpyT6qCCIUXwsqGg8bDjKaMh4qxpki84uKVBNEKAuoqKYPNmQ+zqia1isLZ4KEgRdSVRAhNNlINf7HYMtnjLI5m1MQ81qvoLogQviBin6ETdsYbX13JyGmlV4bTxuCsNa8gGry6sOmiWmMuufPQuzy7W5MW4KwdgEVvQ7b+jD64l/MR4xqOoU2BWGpBxXNzoRt1RvRAy7sjViU3zWVdgVhJbEhFX0GB/5JT2iQi5jTbgvtC8LKU1Q0Bk4kdaQnVD3mQ2zZUEQHgrDQoSrVFDwAR47TI24pRQxpEkdHgrDwLBV9DodG0SP6PoaYMaAinQlCrF081cxpAoc6VaJHFPwdMeKflehQEGLPUNFuOPYDPeO9fMSA4rPpWBBCd1JRCx8cazKHnvH4zfC8cg3pXBAi2Zuoxr8IGlxD78iZDo8bXo0aBCHyIRW9AR18K+gd/tvgaXfXoA5BCFRJp5oy/aBFS3rJvfCw3unUIgiBs6moLjR5j17SJhFetTVAPYL4oyupqGIKNKmSTi+5JRvetJ+6BPEHCe2pqDe0eYieUvMSeJBvObUJ4g8GUtHt0CerGj2lYTN4z3LqE8TpqjeimrSJ0GgJvWXfJfCa/dQoiNP9DxX9Bq1q0luu6g9v2UqdgjjN8FSqWVoWWrX201umpsBLegeoUxCnmUpFs6DZDfSYsxPgHXenU6sgTjWSirolQLN+Zegx18IzhtegXkGcInkPFbWEdr/Qa4bCI8pVo2ZBnKIVFX0F/ZLr0Gs2wxOKG1K3IH6vXxmqKT8ELriCXpPWEl5wNrUL4vfeoKJb4Yp69JrzKiD6/kn9gvidRX6qqVMCVxyIp9e8kIRoG1CJ+gXxX74WVPQ+XPIsPWccoqxJReoTqDhm5eFx+9turYL/WkBFJ+GWLrVoQ97sEd+0ub/u660Wrx3X9eufZqdTI/9IRFcc9ahzQ6/LJmbij5pspJrUm+Gad6ikaMYnvX4th9N16f7miy0KqEetmxBNG6jB6B1fbIeVH6hoOdyT+Ralre56KBnWki/+6IJ0anBuNqKnXRGdqrx+AkJoXkA1nUvhorsoJe3JV8ohvP49h1WlY10RNflb6ExGm5k+hHQBFW2Aq25neG+9WwGyMmsPK6Azge6Ilq50pOP4bITRg4rOTYKrVqUytKJhV0JN7oej6Uj7RERH01Q60GKkD+EkNqSiK+Gy5Qwl5/MOUJcyfgWdqIuo8E2hffUOQcJTVHQ23FY6jZbSf6sAm96fTfvSmyMadtO2LT0go0NVqkmvAtdtpoVKy/vBvsSBc2jbfYiC0sa0qWhxMqQ8S0V/gfuS9lHo7IVwpv/i8rRrKyLvWtr0cifIaRdPNZuyEQGHKDC5JZzrNIU21aiPSGsdT1vyXoOsZ6hoOiLiAp5u4wIfdEgYW4n2PIsIS1hBW7rdBFl3UtFgREbzAp6iaH1/6HJzN9qSth2RNZC2zEuGrOxNVBN4EBHyOX8vbiE0SnyJtqxERGVeSBvypkPeh1T0HSKleCn/1+SW0GxrGm0IPIBI+oI27J0AeVXSqaZGISJmFv/tvAU+aHdlZ9qwBhGUVJHqHq8CBWdT0TJETsIM/j9FQ/vDDZ1WU138cETOEqq7qhAKrqSie5IQQVfy/4qrApcUz6e6BogY3z4qezkLChLaU9FxRFQDTm4J9zTZRWX+A4iUnlT2ciJUDKSitxFZC//hg5vKTqayJxEp3ajqqiyoqN6IaoqewxmmtD2VHUFkfEZVjxdCVlKHqxd99hUVDYW3NVk44PKexycWQ15hR6r6EZExgor2VoGMZr3/8s1e2lEtC16V3fLgjopp/LfyWwbv6DorFzKqNKai8k0QCU2pKG8CwvLd/WI12vYmvKnT0Rmp/CN/zV5XI7ynU6loFiLhfiqajnC6d72QDkyBF9Vvu4vWGt57lg9hPEVFuxABSedRzTyEMfMFOhI/AN5z0ycBhtHwMoTxCRXdDPf1oJpuyQip9gk6dAc8p8rHqZQw4q8IKbsb1fSB+9ZQSd5NCGXVFDpVqws8puzhAkr65maEMryASjqnwG35OVTyGkJIalWJjh2Exxy/kPICba5DCIup5k64bTeVvIwQmk6mcw0T4SnZL/qppGoPWMvsSCVT4bb7qKKoE6xtLqAGPeAp7WZTVeApWGsdoIr4KnBXOT9VLIalhN+owwXwlB5laMPHmbB0P5X8E+6qSxVbkmEl+xHqUOkmeMkTabTlRAdYya5GFU/CXfWoogesVGhBLcbBS1r5aVPfprCygSryEuGmkkpUUA9WmpxLLTbmw0PupX0ZTWEhszJVnAM3XU4Vh2Ah8yfq8QQ85Bid6NsBFr6givVw03oqaAErb1CPq3zwjktT6ciJTIgl7qGC6+GmmlQwEhaGUg9/a3jHgxl06GNYeIIK4gvhnvxUyuvog1hPatIG3nFJNTr2FMSSLqSCINzzKxWMh1iHpdQjrz68YwedC/SA2IdU0AbuuZ/yMrIh1oCajIV39KQOVa+DUJV4ytsL93SjvDYQu5OavJUJz+iwlFq0gdggKhgCt5TGU95MCFVoRE1+hXc0oB6BmyF0BRX0gFtmUl5lH4RepC5zYSmOseobCGUupbx34JYNlLceQqXlqct9sBTHmPVXCM2jvB/hlj6UNwFCv1CflrASx5g1AkJ3UV4LuGUbpY2GUMpG6vMTrMQxdl0Gkf4FlFbGB5fUobQdELqGOv0NFuIYuxr6IHKS8p6DO0riKe0LCN1DnW6AhTjGsLMgMpby7oI7JlDedoicT61qpUAsjjHsXojcTHl14Y6LKK0OhE5Sr94Qi2MMawihRpQ2DO64ldJugEjZeOo1DGJxjGVXQ6QepdWEO4ZRWi+InE/NMkogFMdY1gsihyltNtxRk9Iug8hQ6nY5hOIYy2pCZCClNYI7GlLaRIi8QN3qQiiOscyfC4GWlBbwwRXVKCuQCYHE8tRtJ4TiGNNmQaA65VWHK2pRVkWIPEbt+kIojjGtK0RGU9pNcEWAssZA5Cnq1wEicYxpOyDSkdJaww1ZlLYSIg2o3+UQiWNMGwyRepR2PtyQS2mHITKZ+i2BSBxj2haI7KS0JXDDA5Q2DiL3UL/bIBLHmFYeIt9S2m1wwxFK2w+RitTvQ4jEMbYVQ+BTSjsKN8yltLYQqUb9DkMkjrFtIgRep7Rf4Ia7KG0rRBpRvx0QiWNsOw6BsZT2OtxwEaW9CpEM6hcHkQaMbR9A4BdKuw1uOJ/SjkEkjfrdAZFBjG0XQ+AvlDYQbmhJae9AIIEuuB8iIxjbFkJgPaXthhsepLSHIZBQifothkhHxjR/CgS+pLQlcMNzlPY5RDpSv7YQqcyY1ggifSjtIrihkNKuhUgc9RsPkWmMac9DZAeljYQbUihtGEQepn4DIJLGmDYIIvMp7Xy4ooCyBkPkImqXlgKBXMa2HyFSjdKehis6U9YciAynds9DZC5j21AIJAYobThcUYfSiiGQmUbd3oDIMca2GyGwkPL6wxXPU1priDSkbh9B5CXGtDLJEDiH0hrBHScpbTxEvqZu7SAyhjFtJ0SWUdoKuGMepQ2FyFxqVhFCFRnTXoXIGkp7G+5oS2m3QMTXl3qNg0hxgLEsrTpE9lDaS3DHpZSWlwSRtdSrO0R6M6Z9D5EulNcW7lhIeYsg0pxa1YFQH8a0zRC5i/Iugzt86ZS2H0IjqNN6CHVkLPNfB5FPKe8AXPI8pd0HoWPUKKcLRCr4GcsaQKgb5VWHSxpQWlEJRKoXUZ+uEHqNsSz1AYhUobzz4Ja1lHc+hNZSm/RcCN3AWPYdhNpS3jq45VXKWwOhkknU5UUIZWUwhpXPhVA9yhsLt3SnvJwmELqRmuQMgdASygvEaZJDTdZCqDBAeS3hlszylLcbYqOoxyyI3U55LaDJU9SjcRMIbaW8tBK4ZirlvQCxKjnUYR3E+gUo70to4nuGWrSFWAvKux7uqUt5/ioQa0UNqpVCbCwVfAZdOpWnBjVTILSICl6Ee1pTwVCIZTakY/FzIZYwm/JSm0CbzXTuwvoQ20EFb8I9SbUor2oxxJqPplPrYWE6FeyCPr5RdCpnAMSapVHBc3DRBVTQChba1aIzuxJhoT0V/ACNsq6nM/6LYGEtFcyBmw5SwdJsWDgnnU507gQLN1LF+dCpfmU68hdYyG9MBWvgpgepoi2s3JVK+/YOh5WaVJCaD62G16IDDXyw8CFV9ISbfI2ooFoKrIz30663FsLKcaqoCc2uzKNtz2TBQv3yVJCeBVc1oIpbYaktberWBVaS2lPF69Ct3Rza9HUKrFxLFY/AXa9SRfpzsHRRDdoxuBiWnqIK/3Ww5cBFsPTcW7QjcBCWrk6liifgrqwyVHELrJV7huqeLIGlfnlUMQV2VLgjPmc7LHVoQXVVL4W1R6girTpctpJKLoO1hFtTqaZgfRKsvUclm6EuuVceye9hraSPn4reehTWrqCSqXDb01RSOQsh/G0SVbwwESFcTiWB+lDWcxL/5RqEMLMylYypDmsVGlHJQLjNt4lK5iGU4mGUNvpVhFK2DpWchKp29fhvNXIRQvFKyjv3UoTyJJXE58J1n1LNdIR08dvxlBH/c1mEtI5qZkFN/Y/j+b/WIaSZUyin8hMJCGUB1UyB+x6lmrxOCK35vByGExjUHaEto5q0S6AiuW4Gf+82hFb7KoY37fVkhFSuFtUsQAS0oJoVKQij8OhohrKvVzOEcaQS1TwCFVfU4alSr0QYv56MZ0h7x1VHaNmTqaZxMiJgMxUtR1jJs8bUoFij5d0RVvEeKjoH8gY8wz9YWg7h9PtoBa10HPqYD+HEUdF6REJhARW9Agm+4a/cUJGnSJ096t6RmQgvcxAVTYa03B/jKTC5BOFd3WrUXp4uUO/gdkh4mIpShyAi7qCiwPuQVOGD128dev/yOz5pMOzWnqsyIce3hqqWQFJyqwyKvQE5/UYOHfbyVW81Smt87rav124Y+Vh1SLnIT0VxiIybAlRUNBdu6kNV1RIh56K+tNQVbnosh6ruRoQMo6paB+CeVlRWF1KOnGAo4+Ces6pS1QpEyio/Vc25Gm45RmXlSyEht008Q3sIbmmZR2ULEDHrqKzRWXBHK6r7GeGV7C/DsI7CHTPLU9nSZETMAKorfz5c4OtDdYHmCOvOvpSx1gcX1E6nuqOIoDFUlzYe2mWuoQ3XIpzuUyipQTa0212J6s7LQgRdTBv8vaBZ8SDakFEfofVb6ae0FUOgV+Jy2vEFIuo+2vF2Weh0ZA/tOIqQSm4tQxUbW0OnDvVoxz1JiKhFftoxqTv0WVaJduzNQiivVaaiomPQp11l2vIrIuwO2lKwDJqUXUd7diOEx+bThm3NoEfS2HTach8irbAz7RnVDDpcXof2nJsAa9f6aUuNN6HDgRW0x38EETeLNmV8lAin+r1Hu2ojhNdp184ucKpkXCptGobI811Fu56/G44kPZVHu8YglKTraVetViVwpPYW2lVUBVHQLkC7/G3Kwb7j7WlbresQUtM02nbhggTY1rIe7VuLqFhO+9K+bg57bqxJB7YijIfowLmXwp7u2+jAuSmIirJz6EBgxwQoS5jenk4MQjgpq+nEPQOzoOysR+hEwYOIklfpiH/MRclQ0W/sbDpS6zqE9bd4OlL1pU5QUfhURzqzH1Gzkw7V+PZuSMpacnuADm2FhD50KH7qsQqQk1D77AI6tCsJUVN2Eh2ruH5mMsKp8NoNGXRsEGT0r0PH4k8crIJwKoxf05iOpT+KKOpeQA3Sv//lrCRYKe7dp6OfGtS6DlIO+anD6jYDByTCQv1DQ1f4qcNBRNUyalJ+xnsfvtk9H7+XO/fYS2MqBqjJFZA0lLqkT5lX982W1yXhPxLrD5858HC9RtRlsA/RtY5apS+tOGPwLTsHjejYd1oatboXshLGUK/UOZv2PP78ismTalGzMtsRZWUnMTbcngBpZbcwNvjfR9Q9VsBYMKkUCoaXYUz4BR5wG2NAzoNQ0tPPGPAJPKENvS8IRZ/S+0YkwxMSb6HXdYWqhG30usoV4BHZ8+ltO5OgrHpFeluZpvCM0n30skEpsOHR0fSy+N7wkCGb6F0nsmHLzY3pYWPhKRM706tWFMOmpp3pWZ/CYxaVpzet7gDb2k2jRz0Ezzm/Er1oUjM4cKQqPWkxPOh4Br1n03Y40roWPagVPGnAaHrN883g0N8y6Dlj4VE3TaK31CsLx1rm0WMOwrNy29NLGiRDg+F16CnL4GHF9egdyxOgRYcT9I6CrfC05LfpFa2gS0obesXGi+FxCT/TE4qegEbvxtMTRvSD9wUzGH1bDkCr3mXoAd+mIBY8MIPR1qAYmj1YmdFWMAsxInkeo6pgGfSr8D2j67xFiB0X1WL01HkMbvBtzmEUzc9FLOk0mdHyZHW4pPkIRkvB0UzElpQ+8YyGzgvgnoS6BYyKmqsQe87qxsgb1gGumtCekVe+bQJiUcKyWoysPbXhtsyhAUbYT88hVtUfxghKHZeNCOh+gpFUYzdi2cyGjJSrHkSEXPY4I2ZdLmJbZt3yjIR97yNyEgeOZkTMfxqxr1mfHLptz/gERFT+h+XpuhaX4szQZVwe3bR3YCIiLvfZAF014y6cOao/PI1uafxOCaLi0Wdz6Jp7evpwRsnvNZpumPFFFqKmdGxfumJ2MAFnnOzbVlOzSsMuRnQlfPACdSs4u3YCzkzdX2xMfSq36gIPmHBHDjW652AhzmCJdzUoog7ld45MgEeULqsXoBYZdyzCGa/6K1PoUOeVvUvgKV1mbSugQ/FTrumPP4fnNjRoRLuqHT6eBA8qO/6RdNq2t02wEH8mvgPvjMmgqjmPjG3tg2dlXXFt+wCVFU19ZwL+jBIvPvpCVUpK7XZ4yXPwvqwrez2ykdKqTnmpRwn+zCqcM+vzCx5Po7W89m9/vmFuFmJIlTtfuv3xdIZU1O2Nd8+/Dsa/JD5wY9uH7//2q28Gd9syp3wgY+OW9lMG7bzh5/3BswoRqyq0nj728C0dl9ZKD/A/Miq3v2/ns+Pe7Xl1Eow/j4SSsl2GbH+gQiIMwzAMwzAMwzAMwzAMwzAMwzAMwzAMwzAMwzAMwzAMwzAMwzAMwzAMwzAMwzAMwzAMwzAMwzAMwzAMwzAMwzAMwzAMwzAMwzAMwzAMwzAMwzAMwzAMwzAMwzAMwzCMM9H/Ad6+bE68KjPKAAAAAElFTkSuQmCC;" parent="1" vertex="1">
                    <mxGeometry x="100" y="320" width="40" height="40" as="geometry"/>
                </mxCell>
                <mxCell id="7" value="API" style="rounded=0;whiteSpace=wrap;html=1;strokeWidth=1;fillColor=#808080;fontSize=18;fontColor=#ffffff;strokeColor=#333333;" parent="1" vertex="1">
                    <mxGeometry x="80" y="220" width="240" height="40" as="geometry"/>
                </mxCell>
                <mxCell id="9" value="Webhook Event Server" style="rounded=1;whiteSpace=wrap;html=1;fillColor=#333333;strokeWidth=1;arcSize=10;fontColor=#ffffff;strokeColor=#CCCCCC;fontSize=14;spacingTop=10;spacingLeft=10;" parent="1" vertex="1">
                    <mxGeometry x="480" y="300" width="200" height="80" as="geometry"/>
                </mxCell>
                <mxCell id="11" value="Task&lt;br&gt;" style="rounded=1;whiteSpace=wrap;html=1;fillColor=#008a00;strokeWidth=1;arcSize=4;strokeColor=#005700;fontSize=14;fontColor=#ffffff;" parent="1" vertex="1">
                    <mxGeometry x="580" y="170" width="100" height="30" as="geometry"/>
                </mxCell>
                <mxCell id="19" style="edgeStyle=none;html=1;dashed=1;strokeWidth=2;fontSize=14;fontColor=#FFCC99;endArrow=block;endFill=1;" parent="1" source="12" target="7" edge="1">
                    <mxGeometry relative="1" as="geometry">
                        <mxPoint x="320" y="230" as="targetPoint"/>
                        <Array as="points"/>
                    </mxGeometry>
                </mxCell>
                <mxCell id="12" value="Task&lt;br&gt;" style="rounded=1;whiteSpace=wrap;html=1;fillColor=#008a00;strokeWidth=1;arcSize=4;strokeColor=#005700;fontSize=14;fontColor=#ffffff;" parent="1" vertex="1">
                    <mxGeometry x="480" y="225.22" width="100" height="29.56" as="geometry"/>
                </mxCell>
                <mxCell id="17" value="Dispatch" style="rounded=1;whiteSpace=wrap;html=1;strokeColor=#CCCCCC;strokeWidth=1;fontSize=14;fillColor=#4D4D4D;fontColor=#FFCC99;arcSize=24;" parent="1" vertex="1">
                    <mxGeometry x="480" y="300" width="200" height="20" as="geometry"/>
                </mxCell>
                <mxCell id="10" value="" style="html=1;verticalAlign=bottom;startArrow=oval;startFill=1;endArrow=block;startSize=8;fontSize=14;strokeWidth=2;edgeStyle=orthogonalEdgeStyle;entryX=0.5;entryY=1;entryDx=0;entryDy=0;fillColor=#e3c800;strokeColor=#FFB366;labelBorderColor=none;exitX=0.25;exitY=0;exitDx=0;exitDy=0;" parent="1" source="17" target="12" edge="1">
                    <mxGeometry width="60" relative="1" as="geometry">
                        <mxPoint x="420" y="420" as="sourcePoint"/>
                        <mxPoint x="520" y="240" as="targetPoint"/>
                    </mxGeometry>
                </mxCell>
                <mxCell id="13" value="" style="html=1;verticalAlign=bottom;startArrow=oval;startFill=1;endArrow=block;startSize=8;fontSize=14;strokeWidth=2;exitX=0.75;exitY=0;exitDx=0;exitDy=0;edgeStyle=orthogonalEdgeStyle;entryX=0.5;entryY=1;entryDx=0;entryDy=0;fillColor=#e3c800;strokeColor=#FFB366;" parent="1" source="17" target="11" edge="1">
                    <mxGeometry width="60" relative="1" as="geometry">
                        <mxPoint x="599.5" y="320" as="sourcePoint"/>
                        <mxPoint x="599.5" y="240" as="targetPoint"/>
                    </mxGeometry>
                </mxCell>
                <mxCell id="22" value="&lt;font style=&quot;font-size: 14px;&quot;&gt;Event&lt;/font&gt;" style="text;html=1;strokeColor=none;fillColor=none;align=center;verticalAlign=middle;whiteSpace=wrap;rounded=0;strokeWidth=1;fontSize=18;fontColor=#333333;" parent="1" vertex="1">
                    <mxGeometry x="374.95" y="340" width="60" height="30" as="geometry"/>
                </mxCell>
                <mxCell id="23" value="&lt;font style=&quot;font-size: 14px;&quot;&gt;Action&lt;/font&gt;" style="text;html=1;strokeColor=none;fillColor=none;align=center;verticalAlign=middle;whiteSpace=wrap;rounded=0;strokeWidth=1;fontSize=18;fontColor=#333333;" parent="1" vertex="1">
                    <mxGeometry x="380" y="210" width="60" height="30" as="geometry"/>
                </mxCell>
                <mxCell id="25" value="" style="sketch=0;pointerEvents=1;shadow=0;dashed=0;html=1;strokeColor=none;labelPosition=center;verticalLabelPosition=bottom;verticalAlign=top;outlineConnect=0;align=center;shape=mxgraph.office.security.lock_protected;fillColor=#FF6666;aspect=fixed;fontColor=#000000;" vertex="1" parent="1">
                    <mxGeometry x="290" y="228.74" width="15" height="22.52" as="geometry"/>
                </mxCell>
                <mxCell id="27" value="" style="sketch=0;pointerEvents=1;shadow=0;dashed=0;html=1;strokeColor=none;labelPosition=center;verticalLabelPosition=bottom;verticalAlign=top;outlineConnect=0;align=center;shape=mxgraph.office.security.lock_protected;fillColor=#FF6666;aspect=fixed;fontColor=#000000;" vertex="1" parent="1">
                    <mxGeometry x="490" y="328.74" width="15" height="22.52" as="geometry"/>
                </mxCell>
            </root>
        </mxGraphModel>
    </diagram>
</mxfile>